{
	"asset":{
		"generator":"Khronos glTF Blender I/O v4.4.56",
		"version":"2.0"
	},
	"scene":0,
	"scenes":[
		{
			"name":"Scene",
			"nodes":[
				0,
				1,
				2,
				3,
				4
			]
		}
	],
	"nodes":[
		{
			"mesh":0,
			"name":"path0",
			"rotation":[
				0.7071068286895752,
				0,
				0,
				0.7071068286895752
			],
			"scale":[
				200,
				200,
				200
			]
		},
		{
			"mesh":1,
			"name":"path1",
			"rotation":[
				0.7071068286895752,
				0,
				0,
				0.7071068286895752
			],
			"scale":[
				200,
				200,
				200
			]
		},
		{
			"mesh":2,
			"name":"path2",
			"rotation":[
				0.7071068286895752,
				0,
				0,
				0.7071068286895752
			],
			"scale":[
				200,
				200,
				200
			]
		},
		{
			"mesh":3,
			"name":"path3",
			"rotation":[
				0.7071068286895752,
				0,
				0,
				0.7071068286895752
			],
			"scale":[
				200,
				200,
				200
			]
		},
		{
			"mesh":4,
			"name":"path4",
			"rotation":[
				0.7071068286895752,
				0,
				0,
				0.7071068286895752
			],
			"scale":[
				200,
				200,
				200
			]
		}
	],
	"materials":[
		{
			"doubleSided":true,
			"name":"SVGMat.001",
			"pbrMetallicRoughness":{
				"baseColorFactor":[
					0.9646862745285034,
					0.9559733271598816,
					0.9559733271598816,
					1
				],
				"metallicFactor":0,
				"roughnessFactor":0.4000000059604645
			}
		},
		{
			"doubleSided":true,
			"name":"SVGMat.002",
			"pbrMetallicRoughness":{
				"baseColorFactor":[
					0.13013647496700287,
					0.04666508734226227,
					0.011612244881689548,
					1
				],
				"metallicFactor":0,
				"roughnessFactor":0.4000000059604645
			}
		},
		{
			"doubleSided":true,
			"name":"SVGMat.003",
			"pbrMetallicRoughness":{
				"baseColorFactor":[
					0.9646862745285034,
					0.5520114302635193,
					0.17144110798835754,
					1
				],
				"metallicFactor":0,
				"roughnessFactor":0.4000000059604645
			}
		},
		{
			"doubleSided":true,
			"name":"SVGMat.004",
			"pbrMetallicRoughness":{
				"baseColorFactor":[
					0.6514056324958801,
					0.2917706370353699,
					0.03310476616024971,
					1
				],
				"metallicFactor":0,
				"roughnessFactor":0.4000000059604645
			}
		},
		{
			"doubleSided":true,
			"name":"SVGMat.005",
			"pbrMetallicRoughness":{
				"baseColorFactor":[
					0.8069522380828857,
					0.42869049310684204,
					0.09530746936798096,
					1
				],
				"metallicFactor":0,
				"roughnessFactor":0.4000000059604645
			}
		}
	],
	"meshes":[
		{
			"name":"path0",
			"primitives":[
				{
					"attributes":{
						"POSITION":0,
						"NORMAL":1,
						"TEXCOORD_0":2
					},
					"indices":3,
					"material":0
				}
			]
		},
		{
			"name":"path1",
			"primitives":[
				{
					"attributes":{
						"POSITION":4,
						"NORMAL":5,
						"TEXCOORD_0":6
					},
					"indices":7,
					"material":1
				}
			]
		},
		{
			"name":"path2",
			"primitives":[
				{
					"attributes":{
						"POSITION":8,
						"NORMAL":9,
						"TEXCOORD_0":10
					},
					"indices":11,
					"material":2
				}
			]
		},
		{
			"name":"path3",
			"primitives":[
				{
					"attributes":{
						"POSITION":12,
						"NORMAL":13,
						"TEXCOORD_0":14
					},
					"indices":15,
					"material":3
				}
			]
		},
		{
			"name":"path4",
			"primitives":[
				{
					"attributes":{
						"POSITION":16,
						"NORMAL":17,
						"TEXCOORD_0":18
					},
					"indices":19,
					"material":4
				}
			]
		}
	],
	"accessors":[
		{
			"bufferView":0,
			"componentType":5126,
			"count":15648,
			"max":[
				0.04042026773095131,
				0.004999999888241291,
				0.00737945968285203
			],
			"min":[
				-0.04595847800374031,
				-0.004999999888241291,
				-0.04394922032952309
			],
			"type":"VEC3"
		},
		{
			"bufferView":1,
			"componentType":5126,
			"count":15648,
			"type":"VEC3"
		},
		{
			"bufferView":2,
			"componentType":5126,
			"count":15648,
			"type":"VEC2"
		},
		{
			"bufferView":3,
			"componentType":5123,
			"count":46872,
			"type":"SCALAR"
		},
		{
			"bufferView":4,
			"componentType":5126,
			"count":66790,
			"max":[
				0.04514332860708237,
				0.003000000026077032,
				0.04755585640668869
			],
			"min":[
				-0.04740620777010918,
				-0.003000000026077032,
				-0.048151809722185135
			],
			"type":"VEC3"
		},
		{
			"bufferView":5,
			"componentType":5126,
			"count":66790,
			"type":"VEC3"
		},
		{
			"bufferView":6,
			"componentType":5126,
			"count":66790,
			"type":"VEC2"
		},
		{
			"bufferView":7,
			"componentType":5125,
			"count":199548,
			"type":"SCALAR"
		},
		{
			"bufferView":8,
			"componentType":5126,
			"count":20504,
			"max":[
				0.040549300611019135,
				0.003000000026077032,
				0.024397630244493484
			],
			"min":[
				-0.027940658852458,
				-0.003000000026077032,
				-0.043965842574834824
			],
			"type":"VEC3"
		},
		{
			"bufferView":9,
			"componentType":5126,
			"count":20504,
			"type":"VEC3"
		},
		{
			"bufferView":10,
			"componentType":5126,
			"count":20504,
			"type":"VEC2"
		},
		{
			"bufferView":11,
			"componentType":5123,
			"count":60372,
			"type":"SCALAR"
		},
		{
			"bufferView":12,
			"componentType":5126,
			"count":59467,
			"max":[
				0.044436391443014145,
				0.0024999999441206455,
				0.046453624963760376
			],
			"min":[
				-0.04629281908273697,
				-0.0024999999441206455,
				-0.04747545346617699
			],
			"type":"VEC3"
		},
		{
			"bufferView":13,
			"componentType":5126,
			"count":59467,
			"type":"VEC3"
		},
		{
			"bufferView":14,
			"componentType":5126,
			"count":59467,
			"type":"VEC2"
		},
		{
			"bufferView":15,
			"componentType":5123,
			"count":173628,
			"type":"SCALAR"
		},
		{
			"bufferView":16,
			"componentType":5126,
			"count":31011,
			"max":[
				0.040550004690885544,
				0.0010000000474974513,
				0.024480998516082764
			],
			"min":[
				-0.0461231991648674,
				-0.0010000000474974513,
				-0.043965842574834824
			],
			"type":"VEC3"
		},
		{
			"bufferView":17,
			"componentType":5126,
			"count":31011,
			"type":"VEC3"
		},
		{
			"bufferView":18,
			"componentType":5126,
			"count":31011,
			"type":"VEC2"
		},
		{
			"bufferView":19,
			"componentType":5123,
			"count":90672,
			"type":"SCALAR"
		}
	],
	"bufferViews":[
		{
			"buffer":0,
			"byteLength":187776,
			"byteOffset":0,
			"target":34962
		},
		{
			"buffer":0,
			"byteLength":187776,
			"byteOffset":187776,
			"target":34962
		},
		{
			"buffer":0,
			"byteLength":125184,
			"byteOffset":375552,
			"target":34962
		},
		{
			"buffer":0,
			"byteLength":93744,
			"byteOffset":500736,
			"target":34963
		},
		{
			"buffer":0,
			"byteLength":801480,
			"byteOffset":594480,
			"target":34962
		},
		{
			"buffer":0,
			"byteLength":801480,
			"byteOffset":1395960,
			"target":34962
		},
		{
			"buffer":0,
			"byteLength":534320,
			"byteOffset":2197440,
			"target":34962
		},
		{
			"buffer":0,
			"byteLength":798192,
			"byteOffset":2731760,
			"target":34963
		},
		{
			"buffer":0,
			"byteLength":246048,
			"byteOffset":3529952,
			"target":34962
		},
		{
			"buffer":0,
			"byteLength":246048,
			"byteOffset":3776000,
			"target":34962
		},
		{
			"buffer":0,
			"byteLength":164032,
			"byteOffset":4022048,
			"target":34962
		},
		{
			"buffer":0,
			"byteLength":120744,
			"byteOffset":4186080,
			"target":34963
		},
		{
			"buffer":0,
			"byteLength":713604,
			"byteOffset":4306824,
			"target":34962
		},
		{
			"buffer":0,
			"byteLength":713604,
			"byteOffset":5020428,
			"target":34962
		},
		{
			"buffer":0,
			"byteLength":475736,
			"byteOffset":5734032,
			"target":34962
		},
		{
			"buffer":0,
			"byteLength":347256,
			"byteOffset":6209768,
			"target":34963
		},
		{
			"buffer":0,
			"byteLength":372132,
			"byteOffset":6557024,
			"target":34962
		},
		{
			"buffer":0,
			"byteLength":372132,
			"byteOffset":6929156,
			"target":34962
		},
		{
			"buffer":0,
			"byteLength":248088,
			"byteOffset":7301288,
			"target":34962
		},
		{
			"buffer":0,
			"byteLength":181344,
			"byteOffset":7549376,
			"target":34963
		}
	],
	"buffers":[
		{
			"byteLength":7730720,
			"uri":"PieDevLogo.bin"
		}
	]
}
