{
	"asset":{
		"generator":"Khronos glTF Blender I/O v4.3.47",
		"version":"2.0"
	},
	"scene":0,
	"scenes":[
		{
			"name":"Scene",
			"nodes":[
				0
			]
		}
	],
	"nodes":[
		{
			"mesh":0,
			"name":"IngramMicroLogo"
		}
	],
	"materials":[
		{
			"doubleSided":true,
			"name":"SVGMat.001",
			"pbrMetallicRoughness":{
				"baseColorFactor":[
					0,
					0.18447500467300415,
					0.6583750247955322,
					1
				],
				"metallicFactor":0.7755101919174194,
				"roughnessFactor":0.7333333492279053
			}
		}
	],
	"meshes":[
		{
			"name":"Cube.002",
			"primitives":[
				{
					"attributes":{
						"POSITION":0,
						"NORMAL":1,
						"TEXCOORD_0":2
					},
					"indices":3,
					"material":0
				}
			]
		}
	],
	"accessors":[
		{
			"bufferView":0,
			"componentType":5126,
			"count":3279,
			"max":[
				10.100414276123047,
				1.654765009880066,
				0.7746264934539795
			],
			"min":[
				-10.110803604125977,
				-1.6612193584442139,
				-0.7746264934539795
			],
			"type":"VEC3"
		},
		{
			"bufferView":1,
			"componentType":5126,
			"count":3279,
			"type":"VEC3"
		},
		{
			"bufferView":2,
			"componentType":5126,
			"count":3279,
			"type":"VEC2"
		},
		{
			"bufferView":3,
			"componentType":5123,
			"count":8706,
			"type":"SCALAR"
		}
	],
	"bufferViews":[
		{
			"buffer":0,
			"byteLength":39348,
			"byteOffset":0,
			"target":34962
		},
		{
			"buffer":0,
			"byteLength":39348,
			"byteOffset":39348,
			"target":34962
		},
		{
			"buffer":0,
			"byteLength":26232,
			"byteOffset":78696,
			"target":34962
		},
		{
			"buffer":0,
			"byteLength":17412,
			"byteOffset":104928,
			"target":34963
		}
	],
	"buffers":[
		{
			"byteLength":122340,
			"uri":"IngramMicroLogo.bin"
		}
	]
}
