{
	"asset":{
		"generator":"Khronos glTF Blender I/O v4.2.57",
		"version":"2.0"
	},
	"scene":0,
	"scenes":[
		{
			"name":"Scene",
			"nodes":[
				0
			]
		}
	],
	"nodes":[
		{
			"mesh":0,
			"name":"path0",
			"rotation":[
				0.7071068286895752,
				0,
				0,
				0.7071068286895752
			],
			"scale":[
				185.79380798339844,
				36.76767349243164,
				185.79380798339844
			]
		}
	],
	"materials":[
		{
			"doubleSided":true,
			"name":"SVGMat.001",
			"pbrMetallicRoughness":{
				"baseColorFactor":[
					0,
					0.18447500467300415,
					0.6583750247955322,
					1
				],
				"metallicFactor":0.7755101919174194,
				"roughnessFactor":0.7333333492279053
			}
		}
	],
	"meshes":[
		{
			"name":"path0",
			"primitives":[
				{
					"attributes":{
						"POSITION":0,
						"NORMAL":1,
						"TEXCOORD_0":2
					},
					"indices":3,
					"material":0
				}
			]
		}
	],
	"accessors":[
		{
			"bufferView":0,
			"componentType":5126,
			"count":125687,
			"max":[
				0.054201144725084305,
				0.004999999888241291,
				0.008890608325600624
			],
			"min":[
				-0.054315235465765,
				-0.004999999888241291,
				-0.00889496598392725
			],
			"type":"VEC3"
		},
		{
			"bufferView":1,
			"componentType":5126,
			"count":125687,
			"type":"VEC3"
		},
		{
			"bufferView":2,
			"componentType":5126,
			"count":125687,
			"type":"VEC2"
		},
		{
			"bufferView":3,
			"componentType":5125,
			"count":368712,
			"type":"SCALAR"
		}
	],
	"bufferViews":[
		{
			"buffer":0,
			"byteLength":1508244,
			"byteOffset":0,
			"target":34962
		},
		{
			"buffer":0,
			"byteLength":1508244,
			"byteOffset":1508244,
			"target":34962
		},
		{
			"buffer":0,
			"byteLength":1005496,
			"byteOffset":3016488,
			"target":34962
		},
		{
			"buffer":0,
			"byteLength":1474848,
			"byteOffset":4021984,
			"target":34963
		}
	],
	"buffers":[
		{
			"byteLength":5496832,
			"uri":"IngramLogo.bin"
		}
	]
}
