{
	"asset":{
		"generator":"Khronos glTF Blender I/O v4.0.43",
		"version":"2.0"
	},
	"scene":0,
	"scenes":[
		{
			"name":"Scene",
			"nodes":[
				0,
				1
			]
		}
	],
	"nodes":[
		{
			"mesh":0,
			"name":"Room",
			"scale":[
				7,
				0.25,
				10
			]
		},
		{
			"mesh":1,
			"name":"Nick",
			"rotation":[
				0.5,
				0.5,
				-0.5,
				0.5
			],
			"scale":[
				7,
				7,
				7
			],
			"translation":[
				-4.922736644744873,
				0.45398685336112976,
				9.765997886657715
			]
		}
	],
	"materials":[
		{
			"doubleSided":true,
			"name":"BaseFloor",
			"pbrMetallicRoughness":{
				"baseColorFactor":[
					0.3231506049633026,
					0.22322407364845276,
					0.14996139705181122,
					1
				],
				"metallicFactor":0,
				"roughnessFactor":0.5
			}
		},
		{
			"doubleSided":true,
			"name":"Nick Orange",
			"pbrMetallicRoughness":{
				"baseColorFactor":[
					0.9048144817352295,
					0.15291941165924072,
					0.018498940393328667,
					1
				],
				"metallicFactor":0,
				"roughnessFactor":0.5
			}
		},
		{
			"doubleSided":true,
			"name":"Wall",
			"pbrMetallicRoughness":{
				"baseColorFactor":[
					0.1743234246969223,
					0.07876799255609512,
					0.0471532940864563,
					1
				],
				"metallicFactor":0,
				"roughnessFactor":0.5
			}
		},
		{
			"doubleSided":true,
			"name":"Ceiling",
			"pbrMetallicRoughness":{
				"baseColorFactor":[
					0.06827443093061447,
					0.06827443093061447,
					0.06827443093061447,
					1
				],
				"metallicFactor":0,
				"roughnessFactor":0.5
			}
		},
		{
			"doubleSided":true,
			"name":"MossWall",
			"pbrMetallicRoughness":{
				"baseColorFactor":[
					0.008652593940496445,
					0.03453141450881958,
					0.006887070834636688,
					1
				],
				"metallicFactor":0,
				"roughnessFactor":0.5
			}
		},
		{
			"doubleSided":true,
			"name":"Text InnerBackdrop",
			"pbrMetallicRoughness":{
				"baseColorFactor":[
					0.800000011920929,
					0.800000011920929,
					0.800000011920929,
					1
				],
				"metallicFactor":0,
				"roughnessFactor":0.5
			}
		}
	],
	"meshes":[
		{
			"name":"Cube",
			"primitives":[
				{
					"attributes":{
						"POSITION":0,
						"NORMAL":1,
						"TEXCOORD_0":2
					},
					"indices":3,
					"material":0
				},
				{
					"attributes":{
						"POSITION":4,
						"NORMAL":5,
						"TEXCOORD_0":6
					},
					"indices":7,
					"material":1
				},
				{
					"attributes":{
						"POSITION":8,
						"NORMAL":9,
						"TEXCOORD_0":10
					},
					"indices":11,
					"material":2
				},
				{
					"attributes":{
						"POSITION":12,
						"NORMAL":13,
						"TEXCOORD_0":14
					},
					"indices":15,
					"material":3
				},
				{
					"attributes":{
						"POSITION":16,
						"NORMAL":17,
						"TEXCOORD_0":18
					},
					"indices":19,
					"material":4
				}
			]
		},
		{
			"name":"Text.001",
			"primitives":[
				{
					"attributes":{
						"POSITION":20,
						"NORMAL":21
					},
					"indices":22,
					"material":1
				},
				{
					"attributes":{
						"POSITION":23,
						"NORMAL":24
					},
					"indices":25,
					"material":5
				}
			]
		}
	],
	"accessors":[
		{
			"bufferView":0,
			"componentType":5126,
			"count":44,
			"max":[
				0.7482142448425293,
				2,
				0.9750000238418579
			],
			"min":[
				-0.8232142925262451,
				0,
				-1.024999976158142
			],
			"type":"VEC3"
		},
		{
			"bufferView":1,
			"componentType":5126,
			"count":44,
			"type":"VEC3"
		},
		{
			"bufferView":2,
			"componentType":5126,
			"count":44,
			"type":"VEC2"
		},
		{
			"bufferView":3,
			"componentType":5123,
			"count":102,
			"type":"SCALAR"
		},
		{
			"bufferView":4,
			"componentType":5126,
			"count":26,
			"max":[
				0.7482142448425293,
				3.575821876525879,
				0.9750000238418579
			],
			"min":[
				-0.8232142925262451,
				2,
				-1.024999976158142
			],
			"type":"VEC3"
		},
		{
			"bufferView":5,
			"componentType":5126,
			"count":26,
			"type":"VEC3"
		},
		{
			"bufferView":6,
			"componentType":5126,
			"count":26,
			"type":"VEC2"
		},
		{
			"bufferView":7,
			"componentType":5123,
			"count":48,
			"type":"SCALAR"
		},
		{
			"bufferView":8,
			"componentType":5126,
			"count":26,
			"max":[
				0.7482142448425293,
				18.62670135498047,
				0.9750000238418579
			],
			"min":[
				-0.8232142925262451,
				3.575821876525879,
				-1.024999976158142
			],
			"type":"VEC3"
		},
		{
			"bufferView":9,
			"componentType":5126,
			"count":26,
			"type":"VEC3"
		},
		{
			"bufferView":10,
			"componentType":5126,
			"count":26,
			"type":"VEC2"
		},
		{
			"bufferView":11,
			"componentType":5123,
			"count":48,
			"type":"SCALAR"
		},
		{
			"bufferView":12,
			"componentType":5126,
			"count":36,
			"max":[
				0.7482142448425293,
				23.668989181518555,
				0.9750000238418579
			],
			"min":[
				-0.8232142925262451,
				18.62670135498047,
				-1.024999976158142
			],
			"type":"VEC3"
		},
		{
			"bufferView":13,
			"componentType":5126,
			"count":36,
			"type":"VEC3"
		},
		{
			"bufferView":14,
			"componentType":5126,
			"count":36,
			"type":"VEC2"
		},
		{
			"bufferView":15,
			"componentType":5123,
			"count":72,
			"type":"SCALAR"
		},
		{
			"bufferView":16,
			"componentType":5126,
			"count":18,
			"max":[
				0.7482142448425293,
				23.668989181518555,
				-0.9749999642372131
			],
			"min":[
				-0.6284981369972229,
				0,
				-1.024999976158142
			],
			"type":"VEC3"
		},
		{
			"bufferView":17,
			"componentType":5126,
			"count":18,
			"type":"VEC3"
		},
		{
			"bufferView":18,
			"componentType":5126,
			"count":18,
			"type":"VEC2"
		},
		{
			"bufferView":19,
			"componentType":5123,
			"count":42,
			"type":"SCALAR"
		},
		{
			"bufferView":20,
			"componentType":5126,
			"count":13218,
			"max":[
				1.731595754623413,
				-1.3709068298339844e-06,
				0.011921346187591553
			],
			"min":[
				0.017831146717071533,
				-0.05000042915344238,
				-0.7293304204940796
			],
			"type":"VEC3"
		},
		{
			"bufferView":21,
			"componentType":5126,
			"count":13218,
			"type":"VEC3"
		},
		{
			"bufferView":22,
			"componentType":5123,
			"count":28524,
			"type":"SCALAR"
		},
		{
			"bufferView":23,
			"componentType":5126,
			"count":6605,
			"max":[
				1.722504734992981,
				-0.008182110264897346,
				-0.0008094906806945801
			],
			"min":[
				0.031118527054786682,
				-0.04182548075914383,
				-0.7160069942474365
			],
			"type":"VEC3"
		},
		{
			"bufferView":24,
			"componentType":5126,
			"count":6605,
			"type":"VEC3"
		},
		{
			"bufferView":25,
			"componentType":5123,
			"count":33060,
			"type":"SCALAR"
		}
	],
	"bufferViews":[
		{
			"buffer":0,
			"byteLength":528,
			"byteOffset":0,
			"target":34962
		},
		{
			"buffer":0,
			"byteLength":528,
			"byteOffset":528,
			"target":34962
		},
		{
			"buffer":0,
			"byteLength":352,
			"byteOffset":1056,
			"target":34962
		},
		{
			"buffer":0,
			"byteLength":204,
			"byteOffset":1408,
			"target":34963
		},
		{
			"buffer":0,
			"byteLength":312,
			"byteOffset":1612,
			"target":34962
		},
		{
			"buffer":0,
			"byteLength":312,
			"byteOffset":1924,
			"target":34962
		},
		{
			"buffer":0,
			"byteLength":208,
			"byteOffset":2236,
			"target":34962
		},
		{
			"buffer":0,
			"byteLength":96,
			"byteOffset":2444,
			"target":34963
		},
		{
			"buffer":0,
			"byteLength":312,
			"byteOffset":2540,
			"target":34962
		},
		{
			"buffer":0,
			"byteLength":312,
			"byteOffset":2852,
			"target":34962
		},
		{
			"buffer":0,
			"byteLength":208,
			"byteOffset":3164,
			"target":34962
		},
		{
			"buffer":0,
			"byteLength":96,
			"byteOffset":3372,
			"target":34963
		},
		{
			"buffer":0,
			"byteLength":432,
			"byteOffset":3468,
			"target":34962
		},
		{
			"buffer":0,
			"byteLength":432,
			"byteOffset":3900,
			"target":34962
		},
		{
			"buffer":0,
			"byteLength":288,
			"byteOffset":4332,
			"target":34962
		},
		{
			"buffer":0,
			"byteLength":144,
			"byteOffset":4620,
			"target":34963
		},
		{
			"buffer":0,
			"byteLength":216,
			"byteOffset":4764,
			"target":34962
		},
		{
			"buffer":0,
			"byteLength":216,
			"byteOffset":4980,
			"target":34962
		},
		{
			"buffer":0,
			"byteLength":144,
			"byteOffset":5196,
			"target":34962
		},
		{
			"buffer":0,
			"byteLength":84,
			"byteOffset":5340,
			"target":34963
		},
		{
			"buffer":0,
			"byteLength":158616,
			"byteOffset":5424,
			"target":34962
		},
		{
			"buffer":0,
			"byteLength":158616,
			"byteOffset":164040,
			"target":34962
		},
		{
			"buffer":0,
			"byteLength":57048,
			"byteOffset":322656,
			"target":34963
		},
		{
			"buffer":0,
			"byteLength":79260,
			"byteOffset":379704,
			"target":34962
		},
		{
			"buffer":0,
			"byteLength":79260,
			"byteOffset":458964,
			"target":34962
		},
		{
			"buffer":0,
			"byteLength":66120,
			"byteOffset":538224,
			"target":34963
		}
	],
	"buffers":[
		{
			"byteLength":604344,
			"uri":"Nick_IsoRoom.bin"
		}
	]
}
