{
	"asset":{
		"generator":"Khronos glTF Blender I/O v4.0.43",
		"version":"2.0"
	},
	"scene":0,
	"scenes":[
		{
			"name":"Scene",
			"nodes":[
				0,
				1
			]
		}
	],
	"nodes":[
		{
			"mesh":0,
			"name":"Base"
		},
		{
			"name":"Empty",
			"rotation":[
				0.453379362821579,
				0.48627007007598877,
				-0.3410148620605469,
				0.6646032333374023
			],
			"scale":[
				4.603607654571533,
				4.603606700897217,
				4.603606700897217
			],
			"translation":[
				-13.202753067016602,
				-0.38923463225364685,
				17.909530639648438
			]
		}
	],
	"materials":[
		{
			"doubleSided":true,
			"name":"RoomBase",
			"pbrMetallicRoughness":{
				"baseColorFactor":[
					0,
					0,
					0,
					1
				],
				"metallicFactor":0,
				"roughnessFactor":0.5
			}
		},
		{
			"doubleSided":true,
			"name":"RoomFloor",
			"pbrMetallicRoughness":{
				"baseColorFactor":[
					0.3147154748439789,
					0.16066212952136993,
					0.061271414160728455,
					1
				],
				"metallicFactor":0,
				"roughnessFactor":0.5
			}
		},
		{
			"doubleSided":true,
			"name":"RoomWalls",
			"pbrMetallicRoughness":{
				"baseColorFactor":[
					0.26894646883010864,
					0.4626748263835907,
					0.2932038903236389,
					1
				],
				"metallicFactor":0,
				"roughnessFactor":0.5
			}
		}
	],
	"meshes":[
		{
			"name":"Cube",
			"primitives":[
				{
					"attributes":{
						"POSITION":0,
						"NORMAL":1,
						"TEXCOORD_0":2
					},
					"indices":3,
					"material":0
				},
				{
					"attributes":{
						"POSITION":4,
						"NORMAL":5,
						"TEXCOORD_0":6
					},
					"indices":7,
					"material":1
				},
				{
					"attributes":{
						"POSITION":8,
						"NORMAL":9,
						"TEXCOORD_0":10
					},
					"indices":11,
					"material":2
				}
			]
		}
	],
	"accessors":[
		{
			"bufferView":0,
			"componentType":5126,
			"count":51,
			"max":[
				9.5,
				16,
				9.5
			],
			"min":[
				-10.5,
				0,
				-10.5
			],
			"type":"VEC3"
		},
		{
			"bufferView":1,
			"componentType":5126,
			"count":51,
			"type":"VEC3"
		},
		{
			"bufferView":2,
			"componentType":5126,
			"count":51,
			"type":"VEC2"
		},
		{
			"bufferView":3,
			"componentType":5123,
			"count":126,
			"type":"SCALAR"
		},
		{
			"bufferView":4,
			"componentType":5126,
			"count":4,
			"max":[
				9.5,
				1.000000238418579,
				9.5
			],
			"min":[
				-9.499999046325684,
				1.000000238418579,
				-9.499999046325684
			],
			"type":"VEC3"
		},
		{
			"bufferView":5,
			"componentType":5126,
			"count":4,
			"type":"VEC3"
		},
		{
			"bufferView":6,
			"componentType":5126,
			"count":4,
			"type":"VEC2"
		},
		{
			"bufferView":7,
			"componentType":5123,
			"count":6,
			"type":"SCALAR"
		},
		{
			"bufferView":8,
			"componentType":5126,
			"count":8,
			"max":[
				9.5,
				16,
				9.5
			],
			"min":[
				-9.499999046325684,
				1.000000238418579,
				-9.499999046325684
			],
			"type":"VEC3"
		},
		{
			"bufferView":9,
			"componentType":5126,
			"count":8,
			"type":"VEC3"
		},
		{
			"bufferView":10,
			"componentType":5126,
			"count":8,
			"type":"VEC2"
		},
		{
			"bufferView":11,
			"componentType":5123,
			"count":12,
			"type":"SCALAR"
		}
	],
	"bufferViews":[
		{
			"buffer":0,
			"byteLength":612,
			"byteOffset":0,
			"target":34962
		},
		{
			"buffer":0,
			"byteLength":612,
			"byteOffset":612,
			"target":34962
		},
		{
			"buffer":0,
			"byteLength":408,
			"byteOffset":1224,
			"target":34962
		},
		{
			"buffer":0,
			"byteLength":252,
			"byteOffset":1632,
			"target":34963
		},
		{
			"buffer":0,
			"byteLength":48,
			"byteOffset":1884,
			"target":34962
		},
		{
			"buffer":0,
			"byteLength":48,
			"byteOffset":1932,
			"target":34962
		},
		{
			"buffer":0,
			"byteLength":32,
			"byteOffset":1980,
			"target":34962
		},
		{
			"buffer":0,
			"byteLength":12,
			"byteOffset":2012,
			"target":34963
		},
		{
			"buffer":0,
			"byteLength":96,
			"byteOffset":2024,
			"target":34962
		},
		{
			"buffer":0,
			"byteLength":96,
			"byteOffset":2120,
			"target":34962
		},
		{
			"buffer":0,
			"byteLength":64,
			"byteOffset":2216,
			"target":34962
		},
		{
			"buffer":0,
			"byteLength":24,
			"byteOffset":2280,
			"target":34963
		}
	],
	"buffers":[
		{
			"byteLength":2304,
			"uri":"AboutMeRoom.bin"
		}
	]
}
