{
	"asset":{
		"generator":"Khronos glTF Blender I/O v4.0.43",
		"version":"2.0"
	},
	"scene":0,
	"scenes":[
		{
			"name":"Scene",
			"nodes":[
				0,
				1,
				2,
				3,
				4,
				5,
				6,
				7,
				8,
				9,
				10,
				11,
				12,
				13,
				14,
				15
			]
		}
	],
	"nodes":[
		{
			"mesh":0,
			"name":"Curve.001"
		},
		{
			"mesh":1,
			"name":"Curve.003"
		},
		{
			"mesh":2,
			"name":"Curve.005"
		},
		{
			"mesh":3,
			"name":"Curve.006"
		},
		{
			"mesh":4,
			"name":"Curve.007"
		},
		{
			"mesh":5,
			"name":"Curve.008"
		},
		{
			"mesh":6,
			"name":"Curve.009"
		},
		{
			"mesh":7,
			"name":"Curve.010"
		},
		{
			"mesh":8,
			"name":"Curve.011"
		},
		{
			"mesh":9,
			"name":"Curve.012"
		},
		{
			"mesh":10,
			"name":"Curve.013"
		},
		{
			"mesh":11,
			"name":"Curve.014"
		},
		{
			"mesh":12,
			"name":"Curve.015"
		},
		{
			"mesh":13,
			"name":"Curve.016"
		},
		{
			"mesh":14,
			"name":"Curve.017"
		},
		{
			"mesh":15,
			"name":"Curve.018"
		}
	],
	"materials":[
		{
			"doubleSided":true,
			"name":"SVGMat.004",
			"pbrMetallicRoughness":{
				"baseColorFactor":[
					0.004024717025458813,
					0.005181516520678997,
					0.015208514407277107,
					1
				],
				"metallicFactor":0,
				"roughnessFactor":0.4000000059604645
			}
		},
		{
			"doubleSided":true,
			"name":"SVGMat.006",
			"pbrMetallicRoughness":{
				"baseColorFactor":[
					0.004024717025458813,
					0.004776953253895044,
					0.015208514407277107,
					1
				],
				"metallicFactor":0,
				"roughnessFactor":0.4000000059604645
			}
		},
		{
			"doubleSided":true,
			"name":"SVGMat.008",
			"pbrMetallicRoughness":{
				"baseColorFactor":[
					0.004024717025458813,
					0.004776953253895044,
					0.015208514407277107,
					1
				],
				"metallicFactor":0,
				"roughnessFactor":0.4000000059604645
			}
		},
		{
			"doubleSided":true,
			"name":"SVGMat.009",
			"pbrMetallicRoughness":{
				"baseColorFactor":[
					0.004024717025458813,
					0.004776953253895044,
					0.015208514407277107,
					1
				],
				"metallicFactor":0,
				"roughnessFactor":0.4000000059604645
			}
		},
		{
			"doubleSided":true,
			"name":"SVGMat.010",
			"pbrMetallicRoughness":{
				"baseColorFactor":[
					0.004024717025458813,
					0.004776953253895044,
					0.015208514407277107,
					1
				],
				"metallicFactor":0,
				"roughnessFactor":0.4000000059604645
			}
		},
		{
			"doubleSided":true,
			"name":"SVGMat.011",
			"pbrMetallicRoughness":{
				"baseColorFactor":[
					0.004024717025458813,
					0.004776953253895044,
					0.015208514407277107,
					1
				],
				"metallicFactor":0,
				"roughnessFactor":0.4000000059604645
			}
		},
		{
			"doubleSided":true,
			"name":"SVGMat.012",
			"pbrMetallicRoughness":{
				"baseColorFactor":[
					0.07619776576757431,
					0.48512887954711914,
					0.15894944965839386,
					1
				],
				"metallicFactor":0,
				"roughnessFactor":0.4000000059604645
			}
		},
		{
			"doubleSided":true,
			"name":"SVGMat.013",
			"pbrMetallicRoughness":{
				"baseColorFactor":[
					0.9911020994186401,
					0.9911020994186401,
					0.9911020994186401,
					1
				],
				"metallicFactor":0,
				"roughnessFactor":0.4000000059604645
			}
		},
		{
			"doubleSided":true,
			"name":"SVGMat.014",
			"pbrMetallicRoughness":{
				"baseColorFactor":[
					0.07618538290262222,
					0.4793201684951782,
					0.15896083414554596,
					1
				],
				"metallicFactor":0,
				"roughnessFactor":0.4000000059604645
			}
		},
		{
			"doubleSided":true,
			"name":"SVGMat.015",
			"pbrMetallicRoughness":{
				"baseColorFactor":[
					0.07618538290262222,
					0.48514994978904724,
					0.15896083414554596,
					1
				],
				"metallicFactor":0,
				"roughnessFactor":0.4000000059604645
			}
		},
		{
			"doubleSided":true,
			"name":"SVGMat.016",
			"pbrMetallicRoughness":{
				"baseColorFactor":[
					0.9911020994186401,
					0.9911020994186401,
					0.9911020994186401,
					1
				],
				"metallicFactor":0,
				"roughnessFactor":0.4000000059604645
			}
		},
		{
			"doubleSided":true,
			"name":"SVGMat.017",
			"pbrMetallicRoughness":{
				"baseColorFactor":[
					0.9911020994186401,
					0.9911020994186401,
					0.9911020994186401,
					1
				],
				"metallicFactor":0,
				"roughnessFactor":0.4000000059604645
			}
		},
		{
			"doubleSided":true,
			"name":"SVGMat.018",
			"pbrMetallicRoughness":{
				"baseColorFactor":[
					0.9822505712509155,
					0.9822505712509155,
					0.9822505712509155,
					1
				],
				"metallicFactor":0,
				"roughnessFactor":0.4000000059604645
			}
		},
		{
			"doubleSided":true,
			"name":"SVGMat.019",
			"pbrMetallicRoughness":{
				"baseColorFactor":[
					0.9911020994186401,
					0.9911020994186401,
					0.9911020994186401,
					1
				],
				"metallicFactor":0,
				"roughnessFactor":0.4000000059604645
			}
		},
		{
			"doubleSided":true,
			"name":"SVGMat.020",
			"pbrMetallicRoughness":{
				"baseColorFactor":[
					0.004024717025458813,
					0.004776953253895044,
					0.015208514407277107,
					1
				],
				"metallicFactor":0,
				"roughnessFactor":0.4000000059604645
			}
		},
		{
			"doubleSided":true,
			"name":"SVGMat.021",
			"pbrMetallicRoughness":{
				"baseColorFactor":[
					0.9911020994186401,
					0.9911020994186401,
					0.9911020994186401,
					1
				],
				"metallicFactor":0,
				"roughnessFactor":0.4000000059604645
			}
		}
	],
	"meshes":[
		{
			"name":"Curve.008",
			"primitives":[
				{
					"attributes":{
						"POSITION":0,
						"NORMAL":1,
						"TEXCOORD_0":2
					},
					"indices":3,
					"material":0
				}
			]
		},
		{
			"name":"Curve.010",
			"primitives":[
				{
					"attributes":{
						"POSITION":4,
						"NORMAL":5,
						"TEXCOORD_0":6
					},
					"indices":7,
					"material":1
				}
			]
		},
		{
			"name":"Curve.012",
			"primitives":[
				{
					"attributes":{
						"POSITION":8,
						"NORMAL":9,
						"TEXCOORD_0":10
					},
					"indices":11,
					"material":2
				}
			]
		},
		{
			"name":"Curve.013",
			"primitives":[
				{
					"attributes":{
						"POSITION":12,
						"NORMAL":13,
						"TEXCOORD_0":14
					},
					"indices":15,
					"material":3
				}
			]
		},
		{
			"name":"Curve.014",
			"primitives":[
				{
					"attributes":{
						"POSITION":16,
						"NORMAL":17,
						"TEXCOORD_0":18
					},
					"indices":19,
					"material":4
				}
			]
		},
		{
			"name":"Curve.015",
			"primitives":[
				{
					"attributes":{
						"POSITION":20,
						"NORMAL":21,
						"TEXCOORD_0":22
					},
					"indices":23,
					"material":5
				}
			]
		},
		{
			"name":"Curve.016",
			"primitives":[
				{
					"attributes":{
						"POSITION":24,
						"NORMAL":25,
						"TEXCOORD_0":26
					},
					"indices":27,
					"material":6
				}
			]
		},
		{
			"name":"Curve.017",
			"primitives":[
				{
					"attributes":{
						"POSITION":28,
						"NORMAL":29,
						"TEXCOORD_0":30
					},
					"indices":31,
					"material":7
				}
			]
		},
		{
			"name":"Curve.018",
			"primitives":[
				{
					"attributes":{
						"POSITION":32,
						"NORMAL":33,
						"TEXCOORD_0":34
					},
					"indices":35,
					"material":8
				}
			]
		},
		{
			"name":"Curve.019",
			"primitives":[
				{
					"attributes":{
						"POSITION":36,
						"NORMAL":37,
						"TEXCOORD_0":38
					},
					"indices":39,
					"material":9
				}
			]
		},
		{
			"name":"Curve.020",
			"primitives":[
				{
					"attributes":{
						"POSITION":40,
						"NORMAL":41,
						"TEXCOORD_0":42
					},
					"indices":43,
					"material":10
				}
			]
		},
		{
			"name":"Curve.021",
			"primitives":[
				{
					"attributes":{
						"POSITION":44,
						"NORMAL":45,
						"TEXCOORD_0":46
					},
					"indices":47,
					"material":11
				}
			]
		},
		{
			"name":"Curve.022",
			"primitives":[
				{
					"attributes":{
						"POSITION":48,
						"NORMAL":49,
						"TEXCOORD_0":50
					},
					"indices":51,
					"material":12
				}
			]
		},
		{
			"name":"Curve.023",
			"primitives":[
				{
					"attributes":{
						"POSITION":52,
						"NORMAL":53,
						"TEXCOORD_0":54
					},
					"indices":55,
					"material":13
				}
			]
		},
		{
			"name":"Curve.024",
			"primitives":[
				{
					"attributes":{
						"POSITION":56,
						"NORMAL":57,
						"TEXCOORD_0":58
					},
					"indices":59,
					"material":14
				}
			]
		},
		{
			"name":"Curve.025",
			"primitives":[
				{
					"attributes":{
						"POSITION":60,
						"NORMAL":61,
						"TEXCOORD_0":62
					},
					"indices":63,
					"material":15
				}
			]
		}
	],
	"accessors":[
		{
			"bufferView":0,
			"componentType":5126,
			"count":10873,
			"max":[
				6.31399393081665,
				0.5354145169258118,
				5.549294948577881
			],
			"min":[
				-7.074775218963623,
				-0.5354145169258118,
				-7.161320209503174
			],
			"type":"VEC3"
		},
		{
			"bufferView":1,
			"componentType":5126,
			"count":10873,
			"type":"VEC3"
		},
		{
			"bufferView":2,
			"componentType":5126,
			"count":10873,
			"type":"VEC2"
		},
		{
			"bufferView":3,
			"componentType":5123,
			"count":32484,
			"type":"SCALAR"
		},
		{
			"bufferView":4,
			"componentType":5126,
			"count":2354,
			"max":[
				-6.74183464050293,
				0.5354145169258118,
				3.7778751850128174
			],
			"min":[
				-9.18854808807373,
				-0.5354145169258118,
				-4.23116397857666
			],
			"type":"VEC3"
		},
		{
			"bufferView":5,
			"componentType":5126,
			"count":2354,
			"type":"VEC3"
		},
		{
			"bufferView":6,
			"componentType":5126,
			"count":2354,
			"type":"VEC2"
		},
		{
			"bufferView":7,
			"componentType":5123,
			"count":7044,
			"type":"SCALAR"
		},
		{
			"bufferView":8,
			"componentType":5126,
			"count":434,
			"max":[
				1.037225604057312,
				0.5354145169258118,
				5.549295902252197
			],
			"min":[
				-1.1501035690307617,
				-0.5354145169258118,
				3.2011771202087402
			],
			"type":"VEC3"
		},
		{
			"bufferView":9,
			"componentType":5126,
			"count":434,
			"type":"VEC3"
		},
		{
			"bufferView":10,
			"componentType":5126,
			"count":434,
			"type":"VEC2"
		},
		{
			"bufferView":11,
			"componentType":5123,
			"count":1284,
			"type":"SCALAR"
		},
		{
			"bufferView":12,
			"componentType":5126,
			"count":2162,
			"max":[
				9.260260581970215,
				0.5354145169258118,
				3.7772185802459717
			],
			"min":[
				6.827395439147949,
				-0.5354145169258118,
				-4.231154918670654
			],
			"type":"VEC3"
		},
		{
			"bufferView":13,
			"componentType":5126,
			"count":2162,
			"type":"VEC3"
		},
		{
			"bufferView":14,
			"componentType":5126,
			"count":2162,
			"type":"VEC2"
		},
		{
			"bufferView":15,
			"componentType":5123,
			"count":6468,
			"type":"SCALAR"
		},
		{
			"bufferView":16,
			"componentType":5126,
			"count":770,
			"max":[
				1.0370904207229614,
				0.5354145169258118,
				-3.5266449451446533
			],
			"min":[
				-1.1504014730453491,
				-0.5354145169258118,
				-6.154025077819824
			],
			"type":"VEC3"
		},
		{
			"bufferView":17,
			"componentType":5126,
			"count":770,
			"type":"VEC3"
		},
		{
			"bufferView":18,
			"componentType":5126,
			"count":770,
			"type":"VEC2"
		},
		{
			"bufferView":19,
			"componentType":5123,
			"count":2292,
			"type":"SCALAR"
		},
		{
			"bufferView":20,
			"componentType":5126,
			"count":728,
			"max":[
				5.932324409484863,
				0.5354145169258118,
				0.9271175861358643
			],
			"min":[
				3.2917680740356445,
				-0.5354145169258118,
				-1.2498892545700073
			],
			"type":"VEC3"
		},
		{
			"bufferView":21,
			"componentType":5126,
			"count":728,
			"type":"VEC3"
		},
		{
			"bufferView":22,
			"componentType":5126,
			"count":728,
			"type":"VEC2"
		},
		{
			"bufferView":23,
			"componentType":5123,
			"count":2148,
			"type":"SCALAR"
		},
		{
			"bufferView":24,
			"componentType":5126,
			"count":1379,
			"max":[
				3.883391857147217,
				0.3569430112838745,
				4.480651378631592
			],
			"min":[
				-4.697389125823975,
				-0.3569430112838745,
				-4.1058573722839355
			],
			"type":"VEC3"
		},
		{
			"bufferView":25,
			"componentType":5126,
			"count":1379,
			"type":"VEC3"
		},
		{
			"bufferView":26,
			"componentType":5126,
			"count":1379,
			"type":"VEC2"
		},
		{
			"bufferView":27,
			"componentType":5123,
			"count":4020,
			"type":"SCALAR"
		},
		{
			"bufferView":28,
			"componentType":5126,
			"count":1106,
			"max":[
				5.027450084686279,
				0.3569430112838745,
				4.934629440307617
			],
			"min":[
				0.3709504306316376,
				-0.3569430112838745,
				0.2820900082588196
			],
			"type":"VEC3"
		},
		{
			"bufferView":29,
			"componentType":5126,
			"count":1106,
			"type":"VEC3"
		},
		{
			"bufferView":30,
			"componentType":5126,
			"count":1106,
			"type":"VEC2"
		},
		{
			"bufferView":31,
			"componentType":5123,
			"count":3300,
			"type":"SCALAR"
		},
		{
			"bufferView":32,
			"componentType":5126,
			"count":1029,
			"max":[
				-2.233044385910034,
				0.3569430112838745,
				-2.4364967346191406
			],
			"min":[
				-6.458677768707275,
				-0.3569430112838745,
				-6.554209232330322
			],
			"type":"VEC3"
		},
		{
			"bufferView":33,
			"componentType":5126,
			"count":1029,
			"type":"VEC3"
		},
		{
			"bufferView":34,
			"componentType":5126,
			"count":1029,
			"type":"VEC2"
		},
		{
			"bufferView":35,
			"componentType":5123,
			"count":3024,
			"type":"SCALAR"
		},
		{
			"bufferView":36,
			"componentType":5126,
			"count":566,
			"max":[
				5.698755741119385,
				0.3569430112838745,
				-3.316995620727539
			],
			"min":[
				3.09743595123291,
				-0.3569430112838745,
				-5.91589879989624
			],
			"type":"VEC3"
		},
		{
			"bufferView":37,
			"componentType":5126,
			"count":566,
			"type":"VEC3"
		},
		{
			"bufferView":38,
			"componentType":5126,
			"count":566,
			"type":"VEC2"
		},
		{
			"bufferView":39,
			"componentType":5123,
			"count":1572,
			"type":"SCALAR"
		},
		{
			"bufferView":40,
			"componentType":5126,
			"count":434,
			"max":[
				-1.5201317071914673,
				0.3569430112838745,
				-0.6044859886169434
			],
			"min":[
				-4.304877281188965,
				-0.3569430112838745,
				-3.3799166679382324
			],
			"type":"VEC3"
		},
		{
			"bufferView":41,
			"componentType":5126,
			"count":434,
			"type":"VEC3"
		},
		{
			"bufferView":42,
			"componentType":5126,
			"count":434,
			"type":"VEC2"
		},
		{
			"bufferView":43,
			"componentType":5123,
			"count":1284,
			"type":"SCALAR"
		},
		{
			"bufferView":44,
			"componentType":5126,
			"count":338,
			"max":[
				-0.5081436634063721,
				0.3569430112838745,
				-1.6435017585754395
			],
			"min":[
				-3.2643473148345947,
				-0.3569430112838745,
				-4.392211437225342
			],
			"type":"VEC3"
		},
		{
			"bufferView":45,
			"componentType":5126,
			"count":338,
			"type":"VEC3"
		},
		{
			"bufferView":46,
			"componentType":5126,
			"count":338,
			"type":"VEC2"
		},
		{
			"bufferView":47,
			"componentType":5123,
			"count":996,
			"type":"SCALAR"
		},
		{
			"bufferView":48,
			"componentType":5126,
			"count":486,
			"max":[
				4.66652774810791,
				0.3569430112838745,
				-2.5389609336853027
			],
			"min":[
				2.3097236156463623,
				-0.3569430112838745,
				-4.885702610015869
			],
			"type":"VEC3"
		},
		{
			"bufferView":49,
			"componentType":5126,
			"count":486,
			"type":"VEC3"
		},
		{
			"bufferView":50,
			"componentType":5126,
			"count":486,
			"type":"VEC2"
		},
		{
			"bufferView":51,
			"componentType":5123,
			"count":1428,
			"type":"SCALAR"
		},
		{
			"bufferView":52,
			"componentType":5126,
			"count":1058,
			"max":[
				-3.4099087715148926,
				0.3569430112838745,
				4.841414451599121
			],
			"min":[
				-5.06796407699585,
				-0.3569430112838745,
				3.1857450008392334
			],
			"type":"VEC3"
		},
		{
			"bufferView":53,
			"componentType":5126,
			"count":1058,
			"type":"VEC3"
		},
		{
			"bufferView":54,
			"componentType":5126,
			"count":1058,
			"type":"VEC2"
		},
		{
			"bufferView":55,
			"componentType":5123,
			"count":3156,
			"type":"SCALAR"
		},
		{
			"bufferView":56,
			"componentType":5126,
			"count":530,
			"max":[
				-3.427990674972534,
				0.5354145169258118,
				0.9268357157707214
			],
			"min":[
				-6.057419776916504,
				-0.5354145169258118,
				-1.2595871686935425
			],
			"type":"VEC3"
		},
		{
			"bufferView":57,
			"componentType":5126,
			"count":530,
			"type":"VEC3"
		},
		{
			"bufferView":58,
			"componentType":5126,
			"count":530,
			"type":"VEC2"
		},
		{
			"bufferView":59,
			"componentType":5123,
			"count":1572,
			"type":"SCALAR"
		},
		{
			"bufferView":60,
			"componentType":5126,
			"count":290,
			"max":[
				-5.26353120803833,
				0.3569430112838745,
				-5.36625862121582
			],
			"min":[
				-5.981953144073486,
				-0.3569430112838745,
				-6.08158016204834
			],
			"type":"VEC3"
		},
		{
			"bufferView":61,
			"componentType":5126,
			"count":290,
			"type":"VEC3"
		},
		{
			"bufferView":62,
			"componentType":5126,
			"count":290,
			"type":"VEC2"
		},
		{
			"bufferView":63,
			"componentType":5123,
			"count":852,
			"type":"SCALAR"
		}
	],
	"bufferViews":[
		{
			"buffer":0,
			"byteLength":130476,
			"byteOffset":0,
			"target":34962
		},
		{
			"buffer":0,
			"byteLength":130476,
			"byteOffset":130476,
			"target":34962
		},
		{
			"buffer":0,
			"byteLength":86984,
			"byteOffset":260952,
			"target":34962
		},
		{
			"buffer":0,
			"byteLength":64968,
			"byteOffset":347936,
			"target":34963
		},
		{
			"buffer":0,
			"byteLength":28248,
			"byteOffset":412904,
			"target":34962
		},
		{
			"buffer":0,
			"byteLength":28248,
			"byteOffset":441152,
			"target":34962
		},
		{
			"buffer":0,
			"byteLength":18832,
			"byteOffset":469400,
			"target":34962
		},
		{
			"buffer":0,
			"byteLength":14088,
			"byteOffset":488232,
			"target":34963
		},
		{
			"buffer":0,
			"byteLength":5208,
			"byteOffset":502320,
			"target":34962
		},
		{
			"buffer":0,
			"byteLength":5208,
			"byteOffset":507528,
			"target":34962
		},
		{
			"buffer":0,
			"byteLength":3472,
			"byteOffset":512736,
			"target":34962
		},
		{
			"buffer":0,
			"byteLength":2568,
			"byteOffset":516208,
			"target":34963
		},
		{
			"buffer":0,
			"byteLength":25944,
			"byteOffset":518776,
			"target":34962
		},
		{
			"buffer":0,
			"byteLength":25944,
			"byteOffset":544720,
			"target":34962
		},
		{
			"buffer":0,
			"byteLength":17296,
			"byteOffset":570664,
			"target":34962
		},
		{
			"buffer":0,
			"byteLength":12936,
			"byteOffset":587960,
			"target":34963
		},
		{
			"buffer":0,
			"byteLength":9240,
			"byteOffset":600896,
			"target":34962
		},
		{
			"buffer":0,
			"byteLength":9240,
			"byteOffset":610136,
			"target":34962
		},
		{
			"buffer":0,
			"byteLength":6160,
			"byteOffset":619376,
			"target":34962
		},
		{
			"buffer":0,
			"byteLength":4584,
			"byteOffset":625536,
			"target":34963
		},
		{
			"buffer":0,
			"byteLength":8736,
			"byteOffset":630120,
			"target":34962
		},
		{
			"buffer":0,
			"byteLength":8736,
			"byteOffset":638856,
			"target":34962
		},
		{
			"buffer":0,
			"byteLength":5824,
			"byteOffset":647592,
			"target":34962
		},
		{
			"buffer":0,
			"byteLength":4296,
			"byteOffset":653416,
			"target":34963
		},
		{
			"buffer":0,
			"byteLength":16548,
			"byteOffset":657712,
			"target":34962
		},
		{
			"buffer":0,
			"byteLength":16548,
			"byteOffset":674260,
			"target":34962
		},
		{
			"buffer":0,
			"byteLength":11032,
			"byteOffset":690808,
			"target":34962
		},
		{
			"buffer":0,
			"byteLength":8040,
			"byteOffset":701840,
			"target":34963
		},
		{
			"buffer":0,
			"byteLength":13272,
			"byteOffset":709880,
			"target":34962
		},
		{
			"buffer":0,
			"byteLength":13272,
			"byteOffset":723152,
			"target":34962
		},
		{
			"buffer":0,
			"byteLength":8848,
			"byteOffset":736424,
			"target":34962
		},
		{
			"buffer":0,
			"byteLength":6600,
			"byteOffset":745272,
			"target":34963
		},
		{
			"buffer":0,
			"byteLength":12348,
			"byteOffset":751872,
			"target":34962
		},
		{
			"buffer":0,
			"byteLength":12348,
			"byteOffset":764220,
			"target":34962
		},
		{
			"buffer":0,
			"byteLength":8232,
			"byteOffset":776568,
			"target":34962
		},
		{
			"buffer":0,
			"byteLength":6048,
			"byteOffset":784800,
			"target":34963
		},
		{
			"buffer":0,
			"byteLength":6792,
			"byteOffset":790848,
			"target":34962
		},
		{
			"buffer":0,
			"byteLength":6792,
			"byteOffset":797640,
			"target":34962
		},
		{
			"buffer":0,
			"byteLength":4528,
			"byteOffset":804432,
			"target":34962
		},
		{
			"buffer":0,
			"byteLength":3144,
			"byteOffset":808960,
			"target":34963
		},
		{
			"buffer":0,
			"byteLength":5208,
			"byteOffset":812104,
			"target":34962
		},
		{
			"buffer":0,
			"byteLength":5208,
			"byteOffset":817312,
			"target":34962
		},
		{
			"buffer":0,
			"byteLength":3472,
			"byteOffset":822520,
			"target":34962
		},
		{
			"buffer":0,
			"byteLength":2568,
			"byteOffset":825992,
			"target":34963
		},
		{
			"buffer":0,
			"byteLength":4056,
			"byteOffset":828560,
			"target":34962
		},
		{
			"buffer":0,
			"byteLength":4056,
			"byteOffset":832616,
			"target":34962
		},
		{
			"buffer":0,
			"byteLength":2704,
			"byteOffset":836672,
			"target":34962
		},
		{
			"buffer":0,
			"byteLength":1992,
			"byteOffset":839376,
			"target":34963
		},
		{
			"buffer":0,
			"byteLength":5832,
			"byteOffset":841368,
			"target":34962
		},
		{
			"buffer":0,
			"byteLength":5832,
			"byteOffset":847200,
			"target":34962
		},
		{
			"buffer":0,
			"byteLength":3888,
			"byteOffset":853032,
			"target":34962
		},
		{
			"buffer":0,
			"byteLength":2856,
			"byteOffset":856920,
			"target":34963
		},
		{
			"buffer":0,
			"byteLength":12696,
			"byteOffset":859776,
			"target":34962
		},
		{
			"buffer":0,
			"byteLength":12696,
			"byteOffset":872472,
			"target":34962
		},
		{
			"buffer":0,
			"byteLength":8464,
			"byteOffset":885168,
			"target":34962
		},
		{
			"buffer":0,
			"byteLength":6312,
			"byteOffset":893632,
			"target":34963
		},
		{
			"buffer":0,
			"byteLength":6360,
			"byteOffset":899944,
			"target":34962
		},
		{
			"buffer":0,
			"byteLength":6360,
			"byteOffset":906304,
			"target":34962
		},
		{
			"buffer":0,
			"byteLength":4240,
			"byteOffset":912664,
			"target":34962
		},
		{
			"buffer":0,
			"byteLength":3144,
			"byteOffset":916904,
			"target":34963
		},
		{
			"buffer":0,
			"byteLength":3480,
			"byteOffset":920048,
			"target":34962
		},
		{
			"buffer":0,
			"byteLength":3480,
			"byteOffset":923528,
			"target":34962
		},
		{
			"buffer":0,
			"byteLength":2320,
			"byteOffset":927008,
			"target":34962
		},
		{
			"buffer":0,
			"byteLength":1704,
			"byteOffset":929328,
			"target":34963
		}
	],
	"buffers":[
		{
			"byteLength":931032,
			"uri":"GDCLogo.bin"
		}
	]
}
