<?xml version="1.0" standalone="no"?>
<!DOCTYPE svg PUBLIC "-//W3C//DTD SVG 20010904//EN"
 "http://www.w3.org/TR/2001/REC-SVG-20010904/DTD/svg10.dtd">
<svg version="1.0" xmlns="http://www.w3.org/2000/svg"
 width="3671.000000pt" height="2524.000000pt" viewBox="0 0 3671.000000 2524.000000"
 preserveAspectRatio="xMidYMid meet">

<g transform="translate(0.000000,2524.000000) scale(0.100000,-0.100000)"
fill="#000000" stroke="none">
<path d="M6525 25216 c-1142 -203 -2053 -1091 -2280 -2221 -44 -219 -50 -289
-50 -570 0 -282 7 -361 51 -578 161 -799 677 -1500 1403 -1906 296 -166 632
-278 981 -326 l115 -15 552 -553 553 -552 -548 -550 c-571 -573 -606 -612
-689 -780 -96 -191 -127 -344 -120 -585 5 -190 28 -297 96 -450 82 -187 114
-225 635 -748 306 -307 509 -502 558 -537 206 -149 446 -225 708 -225 255 0
507 78 695 215 l60 44 1767 -1767 1768 -1767 -2409 -2410 -2409 -2410 -41 -85
c-37 -76 -91 -286 -520 -2015 -264 -1062 -489 -1957 -501 -1989 -12 -33 -25
-91 -30 -130 -4 -39 -114 -496 -243 -1016 -129 -520 -238 -974 -242 -1010 -6
-64 5 -168 27 -242 l11 -38 1087 0 1087 0 2260 559 c1242 308 2280 569 2306
580 26 11 73 38 105 60 32 23 1078 1060 2447 2430 l2390 2391 2335 -2334
c2287 -2286 2337 -2334 2410 -2370 55 -27 159 -57 395 -116 176 -43 1339 -331
2584 -639 l2264 -561 718 0 718 0 31 45 c71 103 104 215 103 350 -1 84 -47
277 -748 3105 -420 1699 -757 3038 -771 3069 -13 29 -44 81 -68 115 -25 33
-1080 1096 -2345 2361 l-2301 2300 3264 3265 c2155 2156 3292 3301 3348 3370
330 410 546 849 643 1310 58 271 81 663 55 941 -124 1375 -1085 2710 -2425
3369 -564 277 -1117 403 -1704 387 -684 -18 -1289 -244 -1849 -689 -102 -81
-775 -749 -3392 -3364 l-3265 -3264 -1765 1765 -1764 1764 101 104 c239 246
353 523 353 857 0 265 -84 520 -238 725 -34 46 -260 279 -533 551 -513 511
-550 542 -740 626 -152 67 -260 90 -449 95 -241 7 -394 -24 -585 -120 -171
-85 -201 -112 -883 -791 l-652 -651 -550 550 c-303 303 -552 559 -554 570 -2
11 -15 92 -29 180 -44 274 -115 498 -238 755 -385 799 -1102 1362 -1974 1551
l-150 32 -400 3 c-381 3 -406 2 -530 -20z m821 -1211 c157 -32 271 -73 414
-146 228 -118 431 -291 573 -490 76 -106 183 -316 221 -430 64 -197 94 -438
77 -624 l-9 -110 1166 -1167 1167 -1168 1037 1037 1038 1038 392 -393 393
-392 -2663 -2662 -2662 -2663 -392 393 -393 392 935 935 935 935 -1165 1165
-1165 1165 -145 -7 c-364 -15 -684 74 -990 278 -124 82 -333 290 -419 417 -72
107 -169 302 -206 416 -56 176 -69 265 -70 491 0 180 3 226 23 322 140 691
699 1206 1402 1293 128 15 369 4 506 -25z m19686 -1260 c888 -139 1767 -810
2215 -1690 152 -300 231 -542 274 -845 18 -126 15 -413 -5 -544 -46 -295 -166
-574 -356 -831 -98 -133 -228 -270 -734 -775 l-456 -455 -1800 1800 -1800
1800 518 518 c284 286 556 552 605 593 297 250 643 400 1023 444 107 12 397 4
516 -15z m-69 -6147 l-548 -548 -1802 1802 -1803 1803 547 547 548 548 1802
-1802 1803 -1803 -547 -547z m-11700 1184 l1977 -1977 -775 -775 -775 -775
-1977 1977 -1977 1977 770 775 c423 426 771 775 774 776 3 0 895 -890 1983
-1978z m8890 -400 l1797 -1797 -6668 -6667 -6667 -6666 -230 -56 c-126 -31
-238 -59 -247 -62 -17 -5 -18 18 -18 387 0 439 -3 465 -66 552 -19 26 -53 61
-76 77 -79 58 -101 60 -549 60 l-408 0 -3 402 -3 403 -28 56 c-32 66 -99 132
-165 162 -45 21 -61 22 -449 25 l-402 3 -3 427 -3 427 -28 57 c-33 67 -90 121
-166 157 l-56 26 -411 5 -410 5 58 240 58 240 6668 6668 c3667 3667 6669 6667
6672 6667 3 0 814 -809 1803 -1798z m-9718 -4382 l-795 -795 -1977 1977 -1978
1978 795 795 795 795 1977 -1977 1978 -1978 -795 -795z m13195 -9379 c325
-1311 589 -2387 588 -2391 -2 -3 -1078 260 -2391 585 l-2389 592 -2236 2236
-2237 2237 795 795 795 795 2630 -2629 c2540 -2539 2632 -2629 2685 -2647 163
-54 334 15 407 164 24 49 28 69 28 142 -1 73 -5 93 -29 140 -23 46 -465 492
-2644 2673 l-2617 2617 775 775 775 775 2237 -2238 2238 -2237 590 -2384z
m-18310 664 c0 -392 1 -417 20 -469 26 -69 88 -139 154 -174 l51 -27 410 -5
410 -5 5 -410 5 -410 29 -53 c34 -60 85 -111 148 -144 42 -23 48 -23 478 -28
l435 -5 3 -289 c1 -159 -1 -293 -5 -297 -5 -4 -520 -134 -1147 -289 l-1139
-282 -509 509 -508 508 282 1143 283 1142 297 0 298 0 0 -415z"/>
<path d="M15950 21707 l0 -1532 1080 -1080 1080 -1080 1083 1082 1082 1083 -3
1530 -2 1530 -2160 0 -2160 0 0 -1533z"/>
<path d="M3230 19419 c-203 -19 -430 -69 -607 -134 -141 -52 -401 -182 -523
-262 -579 -381 -975 -971 -1119 -1668 -58 -283 -54 -150 -61 -2375 -6 -1810
-8 -2054 -22 -2121 -64 -309 -175 -484 -365 -574 -271 -128 -450 -349 -509
-625 -18 -87 -18 -263 2 -358 17 -85 64 -203 116 -289 72 -122 238 -263 383
-328 188 -83 297 -248 368 -557 21 -93 21 -96 27 -2148 7 -2232 3 -2093 61
-2379 196 -973 915 -1741 1859 -1987 237 -62 296 -67 803 -71 406 -4 479 -2
550 12 159 32 285 102 407 224 95 96 152 187 197 316 26 76 28 89 28 250 0
165 -1 173 -31 257 -76 213 -224 378 -425 472 -143 68 -150 69 -619 76 -449 7
-466 9 -585 60 -230 98 -434 360 -511 655 -50 188 -47 62 -54 2320 -6 1896 -8
2120 -23 2205 -49 282 -96 440 -188 629 -73 153 -144 261 -248 379 l-79 90 40
38 c22 22 68 75 103 119 193 247 306 530 372 937 15 93 18 303 23 2208 7 2310
3 2150 65 2357 96 315 311 554 575 639 47 15 112 18 475 24 464 7 504 12 641
75 229 105 392 299 454 539 25 100 27 275 4 379 -18 81 -76 212 -124 282 -117
170 -328 302 -537 334 -83 13 -789 13 -923 0z"/>
<path d="M32437 19415 c-305 -57 -553 -292 -633 -600 -27 -105 -25 -294 5
-400 64 -230 204 -403 413 -510 161 -84 183 -87 673 -94 413 -7 433 -8 494
-30 272 -96 472 -324 566 -646 57 -196 55 -112 55 -2240 0 -1213 4 -2011 10
-2095 40 -534 179 -912 454 -1230 l78 -91 -54 -57 c-256 -271 -398 -609 -469
-1122 -9 -62 -14 -645 -19 -2180 -6 -2085 -6 -2095 -27 -2180 -50 -201 -119
-352 -219 -479 -108 -137 -240 -230 -399 -282 -67 -22 -89 -23 -500 -29 -458
-7 -457 -7 -591 -62 -220 -91 -402 -300 -466 -537 -31 -112 -30 -306 0 -415
86 -301 340 -534 637 -586 51 -9 198 -11 540 -7 426 4 481 6 585 26 155 29
315 71 436 116 123 45 374 167 474 231 406 258 729 617 935 1039 140 287 215
541 262 887 15 110 17 335 23 2168 6 2032 6 2046 27 2135 48 205 129 366 228
453 27 24 98 68 158 99 192 98 319 223 406 398 67 136 84 214 84 390 0 134 -2
159 -26 238 -45 148 -107 255 -206 361 -72 75 -151 131 -278 196 -82 41 -114
64 -167 121 -108 114 -184 298 -215 523 -8 53 -11 672 -11 1969 0 1889 -3
2072 -36 2297 -86 595 -356 1131 -770 1530 -385 371 -854 603 -1384 686 -151
24 -958 30 -1073 9z"/>
<path d="M6200 11355 l0 -2165 1528 0 1527 0 1085 1085 1085 1085 -1080 1080
-1080 1080 -1532 0 -1533 0 0 -2165z"/>
<path d="M25852 12427 l-1082 -1082 1083 -1083 1082 -1082 1528 0 1527 0 0
2165 0 2165 -1528 0 -1527 0 -1083 -1083z"/>
<path d="M17037 3592 l-1077 -1077 0 -1258 0 -1257 2160 0 2160 0 0 1258 0
1257 -1078 1078 c-592 592 -1079 1077 -1082 1077 -3 0 -490 -485 -1083 -1078z"/>
</g>
</svg>
