{
	"asset":{
		"generator":"Khronos glTF Blender I/O v4.0.43",
		"version":"2.0"
	},
	"scene":0,
	"scenes":[
		{
			"name":"Scene",
			"nodes":[
				0
			]
		}
	],
	"nodes":[
		{
			"mesh":0,
			"name":"Monitor"
		}
	],
	"materials":[
		{
			"doubleSided":true,
			"name":"MonitorBase",
			"pbrMetallicRoughness":{
				"baseColorFactor":[
					0,
					0,
					0,
					1
				],
				"metallicFactor":0.6535432934761047,
				"roughnessFactor":0.21653541922569275
			}
		},
		{
			"doubleSided":true,
			"name":"Screen",
			"pbrMetallicRoughness":{
				"baseColorFactor":[
					0.800000011920929,
					0.800000011920929,
					0.800000011920929,
					1
				],
				"metallicFactor":0,
				"roughnessFactor":0
			}
		}
	],
	"meshes":[
		{
			"name":"Cube.001",
			"primitives":[
				{
					"attributes":{
						"POSITION":0,
						"NORMAL":1,
						"TEXCOORD_0":2
					},
					"indices":3,
					"material":0
				},
				{
					"attributes":{
						"POSITION":4,
						"NORMAL":5,
						"TEXCOORD_0":6
					},
					"indices":7,
					"material":1
				}
			]
		}
	],
	"accessors":[
		{
			"bufferView":0,
			"componentType":5126,
			"count":216,
			"max":[
				2.0668649673461914,
				1.1626113653182983,
				0.2769574522972107
			],
			"min":[
				-2.0668649673461914,
				-1.5751903057098389,
				-0.5708463788032532
			],
			"type":"VEC3"
		},
		{
			"bufferView":1,
			"componentType":5126,
			"count":216,
			"type":"VEC3"
		},
		{
			"bufferView":2,
			"componentType":5126,
			"count":216,
			"type":"VEC2"
		},
		{
			"bufferView":3,
			"componentType":5123,
			"count":414,
			"type":"SCALAR"
		},
		{
			"bufferView":4,
			"componentType":5126,
			"count":4,
			"max":[
				1.9956295490264893,
				1.1225415468215942,
				0.012472687289118767
			],
			"min":[
				-1.9956295490264893,
				-1.1225415468215942,
				0.012472687289118767
			],
			"type":"VEC3"
		},
		{
			"bufferView":5,
			"componentType":5126,
			"count":4,
			"type":"VEC3"
		},
		{
			"bufferView":6,
			"componentType":5126,
			"count":4,
			"type":"VEC2"
		},
		{
			"bufferView":7,
			"componentType":5123,
			"count":6,
			"type":"SCALAR"
		}
	],
	"bufferViews":[
		{
			"buffer":0,
			"byteLength":2592,
			"byteOffset":0,
			"target":34962
		},
		{
			"buffer":0,
			"byteLength":2592,
			"byteOffset":2592,
			"target":34962
		},
		{
			"buffer":0,
			"byteLength":1728,
			"byteOffset":5184,
			"target":34962
		},
		{
			"buffer":0,
			"byteLength":828,
			"byteOffset":6912,
			"target":34963
		},
		{
			"buffer":0,
			"byteLength":48,
			"byteOffset":7740,
			"target":34962
		},
		{
			"buffer":0,
			"byteLength":48,
			"byteOffset":7788,
			"target":34962
		},
		{
			"buffer":0,
			"byteLength":32,
			"byteOffset":7836,
			"target":34962
		},
		{
			"buffer":0,
			"byteLength":12,
			"byteOffset":7868,
			"target":34963
		}
	],
	"buffers":[
		{
			"byteLength":7880,
			"uri":"Monitor.bin"
		}
	]
}
