{
	"asset":{
		"generator":"Khronos glTF Blender I/O v4.0.43",
		"version":"2.0"
	},
	"scene":0,
	"scenes":[
		{
			"name":"Base",
			"nodes":[
				4
			]
		},
		{
			"name":"FullStick",
			"nodes":[
				6
			]
		},
		{
			"name":"Joystick",
			"nodes":[
				7
			]
		}
	],
	"nodes":[
		{
			"mesh":0,
			"name":"JoystickController-L"
		},
		{
			"children":[
				0
			],
			"mesh":1,
			"name":"PaddingController-L",
			"translation":[
				-1.6217399835586548,
				1.0936800241470337,
				0.25
			]
		},
		{
			"mesh":2,
			"name":"JoystickController-R"
		},
		{
			"children":[
				2
			],
			"mesh":3,
			"name":"PaddingController-R",
			"translation":[
				1.6217399835586548,
				1.0936800241470337,
				0.25
			]
		},
		{
			"children":[
				1,
				3
			],
			"mesh":4,
			"name":"ControllerBase",
			"rotation":[
				0.7071068286895752,
				0,
				0,
				0.7071068286895752
			]
		},
		{
			"mesh":5,
			"name":"JoystickUsed",
			"scale":[
				0.09999999403953552,
				1,
				0.09999999403953552
			]
		},
		{
			"children":[
				5
			],
			"mesh":6,
			"name":"Padding",
			"scale":[
				10,
				1,
				10
			]
		},
		{
			"mesh":7,
			"name":"Joystick"
		}
	],
	"materials":[
		{
			"doubleSided":true,
			"name":"Metal.002",
			"pbrMetallicRoughness":{
				"baseColorTexture":{
					"index":0
				},
				"metallicFactor":0.8267716765403748,
				"roughnessFactor":0.23636364936828613
			}
		},
		{
			"doubleSided":true,
			"name":"Primary",
			"pbrMetallicRoughness":{
				"baseColorTexture":{
					"index":1
				},
				"metallicFactor":0.7681818008422852,
				"roughnessFactor":0.5
			}
		},
		{
			"doubleSided":true,
			"name":"Metal",
			"pbrMetallicRoughness":{
				"baseColorTexture":{
					"index":2
				},
				"metallicFactor":0.8267716765403748,
				"roughnessFactor":0.1818181872367859
			}
		},
		{
			"doubleSided":true,
			"name":"Secondary",
			"pbrMetallicRoughness":{
				"baseColorTexture":{
					"index":3
				},
				"metallicFactor":0.30000001192092896,
				"roughnessFactor":0.5954545736312866
			}
		},
		{
			"doubleSided":true,
			"name":"Accent",
			"pbrMetallicRoughness":{
				"baseColorTexture":{
					"index":4
				},
				"metallicFactor":0,
				"roughnessFactor":0.5
			}
		},
		{
			"doubleSided":true,
			"name":"Metal.001",
			"pbrMetallicRoughness":{
				"baseColorFactor":[
					0.004241828806698322,
					0.004241828806698322,
					0.004241828806698322,
					1
				],
				"metallicFactor":0.8267716765403748,
				"roughnessFactor":0.5
			}
		}
	],
	"meshes":[
		{
			"name":"Cube.006",
			"primitives":[
				{
					"attributes":{
						"POSITION":0,
						"NORMAL":1,
						"TEXCOORD_0":2
					},
					"indices":3,
					"material":0
				}
			]
		},
		{
			"name":"Cylinder.005",
			"primitives":[
				{
					"attributes":{
						"POSITION":4,
						"NORMAL":5,
						"TEXCOORD_0":6
					},
					"indices":7,
					"material":1
				},
				{
					"attributes":{
						"POSITION":8,
						"NORMAL":9,
						"TEXCOORD_0":10
					},
					"indices":11,
					"material":2
				}
			]
		},
		{
			"name":"Cube.005",
			"primitives":[
				{
					"attributes":{
						"POSITION":12,
						"NORMAL":13,
						"TEXCOORD_0":14
					},
					"indices":15,
					"material":0
				}
			]
		},
		{
			"name":"Cylinder.004",
			"primitives":[
				{
					"attributes":{
						"POSITION":16,
						"NORMAL":17,
						"TEXCOORD_0":18
					},
					"indices":19,
					"material":1
				},
				{
					"attributes":{
						"POSITION":20,
						"NORMAL":21,
						"TEXCOORD_0":22
					},
					"indices":23,
					"material":2
				}
			]
		},
		{
			"name":"Cube",
			"primitives":[
				{
					"attributes":{
						"POSITION":24,
						"NORMAL":25,
						"TEXCOORD_0":26
					},
					"indices":27,
					"material":1
				},
				{
					"attributes":{
						"POSITION":28,
						"NORMAL":29,
						"TEXCOORD_0":30
					},
					"indices":31,
					"material":3
				},
				{
					"attributes":{
						"POSITION":32,
						"NORMAL":33,
						"TEXCOORD_0":34
					},
					"indices":35,
					"material":4
				}
			]
		},
		{
			"name":"Cube.003",
			"primitives":[
				{
					"attributes":{
						"POSITION":36,
						"NORMAL":37,
						"TEXCOORD_0":38
					},
					"indices":39,
					"material":5
				}
			]
		},
		{
			"name":"Cylinder.003",
			"primitives":[
				{
					"attributes":{
						"POSITION":40,
						"NORMAL":41,
						"TEXCOORD_0":42
					},
					"indices":43
				}
			]
		},
		{
			"name":"Cube.002",
			"primitives":[
				{
					"attributes":{
						"POSITION":44,
						"NORMAL":45,
						"TEXCOORD_0":46
					},
					"indices":39,
					"material":2
				}
			]
		}
	],
	"textures":[
		{
			"sampler":0,
			"source":0
		},
		{
			"sampler":0,
			"source":0
		},
		{
			"sampler":0,
			"source":0
		},
		{
			"sampler":0,
			"source":0
		},
		{
			"sampler":0,
			"source":0
		}
	],
	"images":[
		{
			"mimeType":"image/png",
			"name":"Controller",
			"uri":"ControllerTexture/Controller.png"
		}
	],
	"accessors":[
		{
			"bufferView":0,
			"componentType":5126,
			"count":1150,
			"max":[
				0.15000104904174805,
				0.8104225397109985,
				0.14999991655349731
			],
			"min":[
				-0.14999866485595703,
				-0.15000011026859283,
				-0.15000002086162567
			],
			"type":"VEC3"
		},
		{
			"bufferView":1,
			"componentType":5126,
			"count":1150,
			"type":"VEC3"
		},
		{
			"bufferView":2,
			"componentType":5126,
			"count":1150,
			"type":"VEC2"
		},
		{
			"bufferView":3,
			"componentType":5123,
			"count":4248,
			"type":"SCALAR"
		},
		{
			"bufferView":4,
			"componentType":5126,
			"count":1013,
			"max":[
				0.8059976100921631,
				0.0553082637488842,
				0.8059955835342407
			],
			"min":[
				-0.8059935569763184,
				-0.23727956414222717,
				-0.8059955835342407
			],
			"type":"VEC3"
		},
		{
			"bufferView":5,
			"componentType":5126,
			"count":1013,
			"type":"VEC3"
		},
		{
			"bufferView":6,
			"componentType":5126,
			"count":1013,
			"type":"VEC2"
		},
		{
			"bufferView":7,
			"componentType":5123,
			"count":4890,
			"type":"SCALAR"
		},
		{
			"bufferView":8,
			"componentType":5126,
			"count":32,
			"max":[
				0.5523862838745117,
				-0.0015613232972100377,
				0.5523841381072998
			],
			"min":[
				-0.552382230758667,
				-0.0015613286523148417,
				-0.5523841381072998
			],
			"type":"VEC3"
		},
		{
			"bufferView":9,
			"componentType":5126,
			"count":32,
			"type":"VEC3"
		},
		{
			"bufferView":10,
			"componentType":5126,
			"count":32,
			"type":"VEC2"
		},
		{
			"bufferView":11,
			"componentType":5123,
			"count":90,
			"type":"SCALAR"
		},
		{
			"bufferView":12,
			"componentType":5126,
			"count":1151,
			"max":[
				0.1499999761581421,
				0.8104226589202881,
				0.14999991655349731
			],
			"min":[
				-0.14999987185001373,
				-0.15000003576278687,
				-0.15000002086162567
			],
			"type":"VEC3"
		},
		{
			"bufferView":13,
			"componentType":5126,
			"count":1151,
			"type":"VEC3"
		},
		{
			"bufferView":14,
			"componentType":5126,
			"count":1151,
			"type":"VEC2"
		},
		{
			"bufferView":15,
			"componentType":5123,
			"count":4248,
			"type":"SCALAR"
		},
		{
			"bufferView":16,
			"componentType":5126,
			"count":1016,
			"max":[
				0.8059957027435303,
				0.0553082674741745,
				0.8059957027435303
			],
			"min":[
				-0.8059957027435303,
				-0.23727957904338837,
				-0.8059957027435303
			],
			"type":"VEC3"
		},
		{
			"bufferView":17,
			"componentType":5126,
			"count":1016,
			"type":"VEC3"
		},
		{
			"bufferView":18,
			"componentType":5126,
			"count":1016,
			"type":"VEC2"
		},
		{
			"bufferView":19,
			"componentType":5123,
			"count":4890,
			"type":"SCALAR"
		},
		{
			"bufferView":20,
			"componentType":5126,
			"count":32,
			"max":[
				0.5523841977119446,
				-0.0015613234136253595,
				0.5523841977119446
			],
			"min":[
				-0.5523841977119446,
				-0.0015613287687301636,
				-0.5523841977119446
			],
			"type":"VEC3"
		},
		{
			"bufferView":21,
			"componentType":5126,
			"count":32,
			"type":"VEC3"
		},
		{
			"bufferView":22,
			"componentType":5126,
			"count":32,
			"type":"VEC2"
		},
		{
			"bufferView":23,
			"componentType":5123,
			"count":90,
			"type":"SCALAR"
		},
		{
			"bufferView":24,
			"componentType":5126,
			"count":9985,
			"max":[
				3.1058030128479004,
				1.1375640630722046,
				3.4409642219543457
			],
			"min":[
				-3.1058027744293213,
				0.03340930864214897,
				-1.4790370464324951
			],
			"type":"VEC3"
		},
		{
			"bufferView":25,
			"componentType":5126,
			"count":9985,
			"type":"VEC3"
		},
		{
			"bufferView":26,
			"componentType":5126,
			"count":9985,
			"type":"VEC2"
		},
		{
			"bufferView":27,
			"componentType":5123,
			"count":52224,
			"type":"SCALAR"
		},
		{
			"bufferView":28,
			"componentType":5126,
			"count":9617,
			"max":[
				3.1073131561279297,
				0.49897706508636475,
				3.4409642219543457
			],
			"min":[
				-3.1073131561279297,
				-0.6079788208007812,
				-1.4790370464324951
			],
			"type":"VEC3"
		},
		{
			"bufferView":29,
			"componentType":5126,
			"count":9617,
			"type":"VEC3"
		},
		{
			"bufferView":30,
			"componentType":5126,
			"count":9617,
			"type":"VEC2"
		},
		{
			"bufferView":31,
			"componentType":5123,
			"count":50304,
			"type":"SCALAR"
		},
		{
			"bufferView":32,
			"componentType":5126,
			"count":2263,
			"max":[
				3.0914041996002197,
				0.48692119121551514,
				3.4129467010498047
			],
			"min":[
				-3.0914041996002197,
				0.00937127135694027,
				-1.4436404705047607
			],
			"type":"VEC3"
		},
		{
			"bufferView":33,
			"componentType":5126,
			"count":2263,
			"type":"VEC3"
		},
		{
			"bufferView":34,
			"componentType":5126,
			"count":2263,
			"type":"VEC2"
		},
		{
			"bufferView":35,
			"componentType":5123,
			"count":11520,
			"type":"SCALAR"
		},
		{
			"bufferView":36,
			"componentType":5126,
			"count":1105,
			"max":[
				1.9999994039535522,
				10.805632591247559,
				1.999998688697815
			],
			"min":[
				-1.9999980926513672,
				-2,
				-2
			],
			"type":"VEC3"
		},
		{
			"bufferView":37,
			"componentType":5126,
			"count":1105,
			"type":"VEC3"
		},
		{
			"bufferView":38,
			"componentType":5126,
			"count":1105,
			"type":"VEC2"
		},
		{
			"bufferView":39,
			"componentType":5123,
			"count":4248,
			"type":"SCALAR"
		},
		{
			"bufferView":40,
			"componentType":5126,
			"count":1065,
			"max":[
				1.0746606588363647,
				0.7374433875083923,
				1.0746606588363647
			],
			"min":[
				-1.0746606588363647,
				-2.9175591468811035,
				-1.0746606588363647
			],
			"type":"VEC3"
		},
		{
			"bufferView":41,
			"componentType":5126,
			"count":1065,
			"type":"VEC3"
		},
		{
			"bufferView":42,
			"componentType":5126,
			"count":1065,
			"type":"VEC2"
		},
		{
			"bufferView":43,
			"componentType":5123,
			"count":4980,
			"type":"SCALAR"
		},
		{
			"bufferView":44,
			"componentType":5126,
			"count":1105,
			"max":[
				1.9999994039535522,
				10.805632591247559,
				1.999998688697815
			],
			"min":[
				-1.9999980926513672,
				-2,
				-2
			],
			"type":"VEC3"
		},
		{
			"bufferView":45,
			"componentType":5126,
			"count":1105,
			"type":"VEC3"
		},
		{
			"bufferView":46,
			"componentType":5126,
			"count":1105,
			"type":"VEC2"
		}
	],
	"bufferViews":[
		{
			"buffer":0,
			"byteLength":13800,
			"byteOffset":0,
			"target":34962
		},
		{
			"buffer":0,
			"byteLength":13800,
			"byteOffset":13800,
			"target":34962
		},
		{
			"buffer":0,
			"byteLength":9200,
			"byteOffset":27600,
			"target":34962
		},
		{
			"buffer":0,
			"byteLength":8496,
			"byteOffset":36800,
			"target":34963
		},
		{
			"buffer":0,
			"byteLength":12156,
			"byteOffset":45296,
			"target":34962
		},
		{
			"buffer":0,
			"byteLength":12156,
			"byteOffset":57452,
			"target":34962
		},
		{
			"buffer":0,
			"byteLength":8104,
			"byteOffset":69608,
			"target":34962
		},
		{
			"buffer":0,
			"byteLength":9780,
			"byteOffset":77712,
			"target":34963
		},
		{
			"buffer":0,
			"byteLength":384,
			"byteOffset":87492,
			"target":34962
		},
		{
			"buffer":0,
			"byteLength":384,
			"byteOffset":87876,
			"target":34962
		},
		{
			"buffer":0,
			"byteLength":256,
			"byteOffset":88260,
			"target":34962
		},
		{
			"buffer":0,
			"byteLength":180,
			"byteOffset":88516,
			"target":34963
		},
		{
			"buffer":0,
			"byteLength":13812,
			"byteOffset":88696,
			"target":34962
		},
		{
			"buffer":0,
			"byteLength":13812,
			"byteOffset":102508,
			"target":34962
		},
		{
			"buffer":0,
			"byteLength":9208,
			"byteOffset":116320,
			"target":34962
		},
		{
			"buffer":0,
			"byteLength":8496,
			"byteOffset":125528,
			"target":34963
		},
		{
			"buffer":0,
			"byteLength":12192,
			"byteOffset":134024,
			"target":34962
		},
		{
			"buffer":0,
			"byteLength":12192,
			"byteOffset":146216,
			"target":34962
		},
		{
			"buffer":0,
			"byteLength":8128,
			"byteOffset":158408,
			"target":34962
		},
		{
			"buffer":0,
			"byteLength":9780,
			"byteOffset":166536,
			"target":34963
		},
		{
			"buffer":0,
			"byteLength":384,
			"byteOffset":176316,
			"target":34962
		},
		{
			"buffer":0,
			"byteLength":384,
			"byteOffset":176700,
			"target":34962
		},
		{
			"buffer":0,
			"byteLength":256,
			"byteOffset":177084,
			"target":34962
		},
		{
			"buffer":0,
			"byteLength":180,
			"byteOffset":177340,
			"target":34963
		},
		{
			"buffer":0,
			"byteLength":119820,
			"byteOffset":177520,
			"target":34962
		},
		{
			"buffer":0,
			"byteLength":119820,
			"byteOffset":297340,
			"target":34962
		},
		{
			"buffer":0,
			"byteLength":79880,
			"byteOffset":417160,
			"target":34962
		},
		{
			"buffer":0,
			"byteLength":104448,
			"byteOffset":497040,
			"target":34963
		},
		{
			"buffer":0,
			"byteLength":115404,
			"byteOffset":601488,
			"target":34962
		},
		{
			"buffer":0,
			"byteLength":115404,
			"byteOffset":716892,
			"target":34962
		},
		{
			"buffer":0,
			"byteLength":76936,
			"byteOffset":832296,
			"target":34962
		},
		{
			"buffer":0,
			"byteLength":100608,
			"byteOffset":909232,
			"target":34963
		},
		{
			"buffer":0,
			"byteLength":27156,
			"byteOffset":1009840,
			"target":34962
		},
		{
			"buffer":0,
			"byteLength":27156,
			"byteOffset":1036996,
			"target":34962
		},
		{
			"buffer":0,
			"byteLength":18104,
			"byteOffset":1064152,
			"target":34962
		},
		{
			"buffer":0,
			"byteLength":23040,
			"byteOffset":1082256,
			"target":34963
		},
		{
			"buffer":0,
			"byteLength":13260,
			"byteOffset":1105296,
			"target":34962
		},
		{
			"buffer":0,
			"byteLength":13260,
			"byteOffset":1118556,
			"target":34962
		},
		{
			"buffer":0,
			"byteLength":8840,
			"byteOffset":1131816,
			"target":34962
		},
		{
			"buffer":0,
			"byteLength":8496,
			"byteOffset":1140656,
			"target":34963
		},
		{
			"buffer":0,
			"byteLength":12780,
			"byteOffset":1149152,
			"target":34962
		},
		{
			"buffer":0,
			"byteLength":12780,
			"byteOffset":1161932,
			"target":34962
		},
		{
			"buffer":0,
			"byteLength":8520,
			"byteOffset":1174712,
			"target":34962
		},
		{
			"buffer":0,
			"byteLength":9960,
			"byteOffset":1183232,
			"target":34963
		},
		{
			"buffer":0,
			"byteLength":13260,
			"byteOffset":1193192,
			"target":34962
		},
		{
			"buffer":0,
			"byteLength":13260,
			"byteOffset":1206452,
			"target":34962
		},
		{
			"buffer":0,
			"byteLength":8840,
			"byteOffset":1219712,
			"target":34962
		}
	],
	"samplers":[
		{
			"magFilter":9729,
			"minFilter":9987
		}
	],
	"buffers":[
		{
			"byteLength":1228552,
			"uri":"GeneralDroneController.bin"
		}
	]
}
